# xmcd CD database file
#
# Track frame offsets:
#	150
#	14620
#	28727
#	48495
#	62292
#	82362
#	97180
#	108815
#	123037
#	135487
#	151745
#	171320
#	186397
#	203052
#	219022
#	232040
#
# Disc length: 3278 seconds
#
# Revision: 0
# Processed by: cddbd v1.5.2PL0 Copyright (c) Steve Scherf et al.
# Submitted via: CDex 1.51
#
DISCID=d60ccc10
DTITLE=Boogie Band - Boogie Woogie Oogie
DYEAR=1900
DGENRE=Blues
TTITLE0=Boogie Woogie Oogie
TTITLE1=I Don't Want her
TTITLE2=Ma Petite Parisienne
TTITLE3=Meet Me At The Bottom
TTITLE4=Life Has A Double
TTITLE5=She's Gone
TTITLE6=Boo Hoo Boogie
TTITLE7=That's My Car
TTITLE8=Little Miss Boogie Two Shoes
TTITLE9=On My Own Again
TTITLE10=That's My Story
TTITLE11=Get Rich Quick
TTITLE12=She Ain't Ready Yet
TTITLE13=Oh Muddy
TTITLE14=One Way Ticket
TTITLE15=My Harmonica's Got The Blues
EXTD=
EXTT0=
EXTT1=
EXTT2=
EXTT3=
EXTT4=
EXTT5=
EXTT6=
EXTT7=
EXTT8=
EXTT9=
EXTT10=
EXTT11=
EXTT12=
EXTT13=
EXTT14=
EXTT15=
PLAYORDER=
